<?xml version="1.0" encoding="UTF-8"?>
<svg version="1.1" xmlns="http://www.w3.org/2000/svg" width="1200" height="800">
<path d="M0 0 C396 0 792 0 1200 0 C1200 264 1200 528 1200 800 C804 800 408 800 0 800 C0 536 0 272 0 0 Z " fill="#CCCCCC" transform="translate(0,0)"/>
<path d="M0 0 C2.63016161 2.1727422 4.47336894 3.94673788 6 7 C6.17603147 9.41249692 6.26744968 11.83150895 6.3125 14.25 C6.34988281 15.55453125 6.38726563 16.8590625 6.42578125 18.203125 C5.93840983 22.54922608 4.7421195 24.64230265 2 28 C-1.13871188 29.56935594 -3.53855822 29.35201103 -7 29 C-9.63016161 26.8272578 -11.47336894 25.05326212 -13 22 C-13.17741233 19.37953265 -13.27747251 16.80989117 -13.3125 14.1875 C-13.34150391 13.47529297 -13.37050781 12.76308594 -13.40039062 12.02929688 C-13.44530392 8.29458362 -13.14178313 6.22071395 -11.10546875 3.05078125 C-7.5274012 -0.43434948 -4.94369188 -0.50274833 0 0 Z " fill="#FAFAFA" transform="translate(669,382)"/>
<path d="M0 0 C2.63016161 2.1727422 4.47336894 3.94673788 6 7 C6.17603147 9.41249692 6.26744968 11.83150895 6.3125 14.25 C6.34988281 15.55453125 6.38726563 16.8590625 6.42578125 18.203125 C5.93840983 22.54922608 4.7421195 24.64230265 2 28 C-1.13871188 29.56935594 -3.53855822 29.35201103 -7 29 C-9.63016161 26.8272578 -11.47336894 25.05326212 -13 22 C-13.17741233 19.37953265 -13.27747251 16.80989117 -13.3125 14.1875 C-13.34150391 13.47529297 -13.37050781 12.76308594 -13.40039062 12.02929688 C-13.44530392 8.29458362 -13.14178313 6.22071395 -11.10546875 3.05078125 C-7.5274012 -0.43434948 -4.94369188 -0.50274833 0 0 Z " fill="#FAFAFA" transform="translate(560,382)"/>
<path d="M0 0 C2.75329021 1.79562405 4.52627461 3.05254922 6 6 C6.20433959 8.7673419 6.32378498 11.47973281 6.375 14.25 C6.41238281 15.00152344 6.44976563 15.75304687 6.48828125 16.52734375 C6.55196435 20.58183437 6.2564254 23.24291783 3.73046875 26.5078125 C1 29 1 29 -1.09765625 29.7265625 C-4.43178716 29.55422174 -6.63179049 29.26162255 -9.375 27.3125 C-13.78220334 21.04071063 -13.78352405 14.43415083 -13 7 C-10.49472239 0.51227637 -6.62763363 -0.56166387 0 0 Z " fill="#F9F9F9" transform="translate(582,382)"/>
<path d="M0 0 C2.75329021 1.79562405 4.52627461 3.05254922 6 6 C6.20433959 8.7673419 6.32378498 11.47973281 6.375 14.25 C6.41238281 15.00152344 6.44976563 15.75304687 6.48828125 16.52734375 C6.55196435 20.58183437 6.2564254 23.24291783 3.73046875 26.5078125 C1 29 1 29 -1.09765625 29.7265625 C-4.43178716 29.55422174 -6.63179049 29.26162255 -9.375 27.3125 C-13.44826154 21.51593551 -13.64966249 15.88051638 -13 9 C-11.0928786 1.64582638 -7.61732295 -0.78799893 0 0 Z " fill="#F9F9F9" transform="translate(691,382)"/>
<path d="M0 0 C3 1.625 3 1.625 5 4 C5.57805215 7.96378615 5.09412209 10.5970516 3 14 C3.49628906 14.4021875 3.99257813 14.804375 4.50390625 15.21875 C6 17 6 17 6.21484375 19.15625 C5.48370241 25.33490918 5.48370241 25.33490918 3.5 28.0625 C-0.38528103 29.51948039 -3.91631703 29.75569934 -8 29 C-11.0625 27 -11.0625 27 -13 24 C-13.59463233 21.0326115 -13.39958685 19.09679807 -13 16 C-11.5 14 -11.5 14 -10 13 C-10.66 12.34 -11.32 11.68 -12 11 C-12.42431591 7.18115682 -12.5390434 4.87594552 -10.5 1.5625 C-7.02737332 -0.60789167 -3.92750617 -0.76216952 0 0 Z " fill="#FAFAFA" transform="translate(647,382)"/>
<path d="M0 0 C3.39816113 2.35790772 4.68603395 3.82262731 5.75 7.8125 C4.60075698 12.69678285 1.47148697 15.50699555 -2 19 C-2.52078125 19.53496094 -3.0415625 20.06992187 -3.578125 20.62109375 C-4.70349776 21.76263566 -5.84921177 22.88408414 -7 24 C-3.04 24.33 0.92 24.66 5 25 C5 26.32 5 27.64 5 29 C-1.6 29 -8.2 29 -15 29 C-13.87265918 23.36329588 -13.87265918 23.36329588 -10.75 20.4375 C-10.12351562 19.84453125 -9.49703125 19.2515625 -8.8515625 18.640625 C-6.63348977 16.6752441 -4.32032811 14.8426135 -2 13 C-0.64560332 10.29120665 -0.93498549 7.99066732 -1 5 C-3.97 4.505 -3.97 4.505 -7 4 C-7.4125 4.825 -7.825 5.65 -8.25 6.5 C-8.8275 7.325 -9.405 8.15 -10 9 C-11.32 9 -12.64 9 -14 9 C-13.71827807 5.83062828 -13.51665615 3.64582019 -11.5 1.125 C-7.66031266 -0.6028593 -4.12947496 -0.77886894 0 0 Z " fill="#F9F9F9" transform="translate(539,382)"/>
<path d="M0 0 C2.375 0.9375 2.375 0.9375 4.375 3.9375 C4.7109375 7.1171875 4.7109375 7.1171875 4.75 10.8125 C4.77835938 12.02679688 4.80671875 13.24109375 4.8359375 14.4921875 C4.30405726 18.46776694 3.11847442 20.08558786 0.375 22.9375 C-2.92031553 22.36934215 -4.64538683 21.67336989 -6.625 18.9375 C-6.95132361 16.35336978 -7.08969974 14.07902951 -7.0625 11.5 C-7.08183594 10.18128906 -7.10117187 8.86257813 -7.12109375 7.50390625 C-6.625 3.9375 -6.625 3.9375 -4.76171875 1.4609375 C-2.625 -0.0625 -2.625 -0.0625 0 0 Z " fill="#CFCFCF" transform="translate(557.625,385.0625)"/>
<path d="M0 0 C2.375 0.9375 2.375 0.9375 4.375 3.9375 C4.7109375 7.1171875 4.7109375 7.1171875 4.75 10.8125 C4.77835938 12.02679688 4.80671875 13.24109375 4.8359375 14.4921875 C4.30405726 18.46776694 3.11847442 20.08558786 0.375 22.9375 C-1.4375 22.75 -1.4375 22.75 -3.625 21.9375 C-6.52233384 18.0837647 -7.05696898 15.14827322 -7.0625 10.375 C-7.08183594 9.25996094 -7.10117187 8.14492188 -7.12109375 6.99609375 C-6.416771 2.6536944 -4.62678372 -0.11016152 0 0 Z " fill="#CFCFCF" transform="translate(666.625,385.0625)"/>
<path d="M0 0 C2.4375 0.875 2.4375 0.875 4.4375 3.875 C4.68519941 6.40671843 4.80764685 8.78158172 4.8125 11.3125 C4.84085938 12.63121094 4.86921875 13.94992187 4.8984375 15.30859375 C4.4375 18.875 4.4375 18.875 2.546875 21.3515625 C0.4375 22.875 0.4375 22.875 -1.6875 22.8125 C-3.5625 21.875 -3.5625 21.875 -5.5625 18.875 C-5.78378109 16.16215129 -5.88705875 13.58580614 -5.875 10.875 C-5.89111328 10.15054687 -5.90722656 9.42609375 -5.92382812 8.6796875 C-5.92868406 3.41585806 -5.92868406 3.41585806 -4.203125 0.8671875 C-2.5625 -0.125 -2.5625 -0.125 0 0 Z " fill="#CDCDCD" transform="translate(579.5625,385.125)"/>
<path d="M0 0 C2.4375 0.9375 2.4375 0.9375 3.57421875 2.58984375 C4.69216263 5.63004407 4.70233735 8.20295733 4.6875 11.4375 C4.69265625 12.5615625 4.6978125 13.685625 4.703125 14.84375 C4.44824744 17.81232396 4.13462783 19.51303168 2.4375 21.9375 C-0.1875 22.6875 -0.1875 22.6875 -2.5625 22.9375 C-5.58798065 19.87199976 -5.9490743 17.28574173 -5.97265625 13.04492188 C-5.96105469 12.32884766 -5.94945312 11.61277344 -5.9375 10.875 C-5.94910156 10.15505859 -5.96070313 9.43511719 -5.97265625 8.69335938 C-5.95576571 5.66150817 -5.93590254 3.48529972 -4.19921875 0.9375 C-2.5625 -0.0625 -2.5625 -0.0625 0 0 Z " fill="#CDCDCD" transform="translate(688.5625,385.0625)"/>
<path d="M0 0 C2.3125 -0.25 2.3125 -0.25 5 0 C6.97610386 2.04424538 8 3.1176825 8 6 C8.66 6 9.32 6 10 6 C10.309375 5.195625 10.61875 4.39125 10.9375 3.5625 C12 1 12 1 13 0 C14.66617115 -0.04063832 16.33388095 -0.042721 18 0 C16.99088542 1.69270833 15.98177083 3.38541667 14.97265625 5.078125 C13.90979681 7.1782328 13.21096378 8.64423778 13 11 C14.1833029 13.6582029 14.1833029 13.6582029 15.9375 16.25 C16.50339844 17.14203125 17.06929687 18.0340625 17.65234375 18.953125 C18.09707031 19.62859375 18.54179688 20.3040625 19 21 C16.64453125 21.1484375 16.64453125 21.1484375 14 21 C10 16.89189189 10 16.89189189 10 14 C9.34 14 8.68 14 8 14 C7.71125 14.78375 7.4225 15.5675 7.125 16.375 C6 19 6 19 4 21 C1.375 21.125 1.375 21.125 -1 21 C-0.54367187 20.33613281 -0.08734375 19.67226563 0.3828125 18.98828125 C0.95773437 18.10527344 1.53265625 17.22226562 2.125 16.3125 C2.70507812 15.44238281 3.28515625 14.57226562 3.8828125 13.67578125 C5.30239373 11.04753195 5.30239373 11.04753195 4.28125 8.375 C3.8584375 7.59125 3.435625 6.8075 3 6 C2.46375 4.906875 1.9275 3.81375 1.375 2.6875 C0.92125 1.800625 0.4675 0.91375 0 0 Z " fill="#FAFAFA" transform="translate(602,390)"/>
<path d="M0 0 C0.99 0 1.98 0 3 0 C3 9.57 3 19.14 3 29 C1.68 29 0.36 29 -1 29 C-1 22.07 -1 15.14 -1 8 C-3.475 9.485 -3.475 9.485 -6 11 C-6.66 11 -7.32 11 -8 11 C-7.66141506 7.83987387 -7.05398412 7.04567887 -4.5625 4.9375 C-3.716875 4.298125 -2.87125 3.65875 -2 3 C-1.34 2.01 -0.68 1.02 0 0 Z " fill="#FBFBFB" transform="translate(513,382)"/>
<path d="M0 0 C2.9375 0.8125 2.9375 0.8125 4.9375 2.8125 C5.3125 5.25 5.3125 5.25 4.9375 7.8125 C3.25 9.6875 3.25 9.6875 0.9375 10.8125 C-2.43286311 10.57175978 -3.65048021 10.22451979 -6.0625 7.8125 C-6.4258156 4.97863833 -6.4193671 3.40727849 -4.9375 0.9375 C-3.0625 -0.1875 -3.0625 -0.1875 0 0 Z " fill="#CECECE" transform="translate(644.0625,397.1875)"/>
<path d="M0 0 C1.9375 0.75 1.9375 0.75 3.9375 2.75 C3.5625 5.375 3.5625 5.375 2.9375 7.75 C0.625 8.375 0.625 8.375 -2.0625 8.75 C-3.0525 8.09 -4.0425 7.43 -5.0625 6.75 C-5.4375 4.25 -5.4375 4.25 -5.0625 1.75 C-2.0625 -0.25 -2.0625 -0.25 0 0 Z " fill="#D0D0D0" transform="translate(644.0625,385.25)"/>
</svg>
